# xmcd CD database file
#
# Track frame offsets:
#	150
#	2207
#	4978
#	8186
#	10674
#	12779
#	15241
#	17944
#	23393
#	31504
#	38032
#	69699
#	97220
#	103584
#	119364
#
# Disc length: 2085 seconds
#
# Revision: 6
# Processed by: cddbd v1.5.2PL0 Copyright (c) Steve Scherf et al.
# Submitted via: CDex 1.70beta2
#
DISCID=9f08230f
DTITLE=神前暁 - らき☆すた BGM＆ラジオ番組「らっきー☆ちゃんねる」のダイジェストを収録したスペシャルCD 10
DYEAR=2008
DGENRE=Anime
TTITLE0=ギャルゲ～朝の風景～
TTITLE1=ギャルゲ～ランチ食べよ～
TTITLE2=ギャルゲ～一緒に帰ろう～
TTITLE3=ギャルゲ～宿題やんなさい！～
TTITLE4=ギャルゲ～別にあんたの心配なんかしてないんだからね～
TTITLE5=ギャルゲ～好きにしていいよ～
TTITLE6=普通の飲み物には興味ありません！以上！
TTITLE7=新しい風
TTITLE8=いつもの感じ
TTITLE9=あれ？　白石、富士の樹海に行ったんじゃ？
TTITLE10=一億円のお札の形の「のしいか」のおみやげ？～ふつおた
TTITLE11=のしいか食べながら、ポイント加算らっきーず
TTITLE12=小神あきら(今野宏美)、白石みのる(白石稔)、小野だいすけ(小野大輔)/アニメ第20回放送分のあとに…小野大輔さん登場！
TTITLE13=新アシスタント小野さんと楽しくトーク！
TTITLE14=白石の中継？もしもdeらっきー☆ちゃんねる～エンディング
EXTD=YEAR: 2008
EXTT0=
EXTT1=
EXTT2=
EXTT3=
EXTT4=
EXTT5=
EXTT6=
EXTT7=
EXTT8=
EXTT9=
EXTT10=
EXTT11=
EXTT12=
EXTT13=
EXTT14=
PLAYORDER=
